<svg width="145" height="37" fill="none" xmlns="http://www.w3.org/2000/svg">
  <path d="M17.654 27.65c-1.681 0-4.404-1.94-5.75-3.085-1.902-1.619-4.169-4.156-4.169-7.032 0-3.593 2.693-6.302 6.263-6.302 1.558 0 2.886.651 3.797 1.27.92-.615 2.246-1.268 3.722-1.268.586 0 2.368 0 3.953 1.514.734.702.77 1.877.084 2.625a1.79 1.79 0 01-2.57.085c-.468-.45-.981-.511-1.465-.511-.973 0-2.145.928-2.479 1.252l-1.311 1.278-1.262-1.328c-.319-.328-1.4-1.204-2.467-1.204-1.307 0-2.626.8-2.626 2.587 0 2.41 4.66 5.85 6.233 6.363.28-.14.824-.458 2.315-1.791a1.791 1.791 0 012.565.172 1.885 1.885 0 01-.169 2.62c-2.828 2.529-3.813 2.756-4.664 2.756z" fill="#F85520"/>
  <path d="M17.75 36.326C8.154 36.326 0 28.352 0 18.55S7.808.77 17.404.77c5.424 0 10.442 2.516 13.767 6.904.613.81.47 1.978-.326 2.605a1.79 1.79 0 01-2.55-.332c-2.63-3.47-6.6-5.461-10.892-5.461-7.591 0-13.767 6.309-13.767 14.064 0 7.756 6.522 14.065 14.114 14.065 7.781 0 12.476-6.393 12.476-11.075-1.433.01-2.867.037-4.3.037-.997 0-1.81-.822-1.818-1.843-.009-1.024.8-1.864 1.803-1.872.237-.003 5.812-.048 6.7-.048.887 0 1.645.527 1.645 1.375v1.19c0 6.953-5.45 15.948-16.506 15.948z" fill="#F85520"/>
  <path d="M57.092 10.46H55.43c-1.36 0-2.143.956-2.143 2.13v.433c-1.238-1.727-3.142-2.839-5.375-2.839-4.138 0-7.701 3.64-7.701 8.021 0 4.382 3.563 7.96 7.7 7.96 2.266 0 4.168-1.11 5.407-2.84v1.543c0 2.931-2.143 4.01-4.832 4.01-1.873 0-3.08-.492-3.684-.74-.09-.03-.151-.063-.212-.093-.302-.216-.604-.308-.877-.308-.877 0-1.51.741-1.51 1.605 0 2.314 4.832 2.776 6.342 2.776 3.986 0 7.973-2.035 7.973-7.312v-9.78c0-.124 0-.246-.03-.37v-1.08h.634c1.087 0 1.6-.802 1.6-1.543 0-.771-.545-1.573-1.631-1.573zm-8.758 12.587c-2.718 0-4.922-2.222-4.922-4.874 0-2.622 2.204-4.874 4.922-4.874 2.718 0 4.983 2.252 4.983 4.874 0 2.652-2.265 4.874-4.983 4.874zm19.582 1.326c0 .771-.575 1.543-1.54 1.543h-5.194c-.967 0-1.51-.771-1.51-1.543 0-.801.543-1.572 1.51-1.572h.996v-9.226h-.665c-.996 0-1.539-.8-1.539-1.572 0-.771.543-1.543 1.54-1.543h2.325c1.028 0 1.54.772 1.54 1.543V22.8h.995c.97 0 1.542.771 1.542 1.572zm-4.289-16.01c1.086 0 1.934-.896 1.934-2.035 0-1.14-.845-2.036-1.934-2.036-1.057 0-1.902.896-1.902 2.036 0 1.17.816 2.035 1.902 2.035zM82.85 10.46h-1.48c-.694 0-1.178.279-1.48.926l-4.077 10.273-4.077-10.273c-.302-.587-.755-.926-1.42-.926h-1.541c-.967 0-1.51.772-1.51 1.543 0 .771.543 1.572 1.51 1.572h.392l5.012 11.415c.694 1.297 2.567 1.297 3.26 0l5.013-11.415h.392c.967 0 1.51-.8 1.51-1.572.007-.771-.536-1.543-1.503-1.543zm16.443 8.977c-.906-.37-1.721-.092-2.265.833-1.027 1.76-2.868 2.901-5.012 2.901-1.6 0-3.141-.925-3.563-1.726l9.391-4.658c.634-.278 1.179-.771 1.179-1.667 0-.463-.241-1.05-.575-1.634-1.208-2.13-3.684-3.302-6.463-3.302-4.257 0-7.746 3.518-7.791 7.837-.047 4.43 3.351 8.146 7.822 8.146 4.228 0 6.313-1.881 7.942-4.536.451-.744.151-1.853-.665-2.194zm-7.308-6.292c1.449-.092 2.808.433 3.624 1.512l-8.185 4.07c-.422-2.868 1.631-5.398 4.56-5.582zm13.542 9.594c-.331 0-.392-.309-.392-.71V6.171c0-.988-.604-1.635-1.51-1.635h-2.718c-.996 0-1.54.742-1.54 1.543 0 .771.544 1.572 1.54 1.572h1.028v13.821c0 .309 0 .647.029.956.029 2.035 1.388 3.64 3.563 3.64 1.028 0 1.6-.864 1.6-1.667 0-.829-.572-1.662-1.6-1.662zm10.54 1.634c0 .771-.543 1.543-1.57 1.543h-4.56c-.996 0-1.539-.771-1.539-1.543 0-.801.543-1.572 1.539-1.572h.695v-9.304h-.695c-.996 0-1.539-.801-1.539-1.572 0-.772.543-1.543 1.539-1.543h2.356c.635 0 1.086.315 1.329.744.009.016.018.032.025.048l.032.06c.058.12.101.253.126.398l.004.023c.007.037.011.076.016.115.004.05.007.104.007.155V22.8h.665c1.025 0 1.57.771 1.57 1.572zm-4.018-15.98c1.057 0 1.902-.896 1.902-2.006 0-1.141-.845-2.035-1.902-2.035-1.086 0-1.934.896-1.934 2.035 0 1.14.816 2.006 1.934 2.006zm30.652 2.067h-2.355c-.755 0-1.51.555-1.51 1.543v5.8c0 3.269-1.661 5.244-4.016 5.244-2.477 0-4.228-2.067-4.228-5.307v-5.737l-.002-.042.002-.053c0-.77-.543-1.542-1.571-1.542h-5.888v-1.05c0-1.572.574-1.821 1.841-1.851.272.154.543.216.876.216.785 0 1.632-.462 1.632-1.512 0-1.389-1.359-1.851-2.506-1.851-2.808 0-5.044 1.418-5.044 5.12v.926h-1.963c-.996 0-1.57.77-1.57 1.542 0 .771.574 1.573 1.57 1.573h1.963v9.317h-.906c-.966 0-1.51.771-1.51 1.573 0 .77.544 1.542 1.51 1.542h4.954c.967 0 1.539-.771 1.539-1.542 0-.802-.575-1.573-1.539-1.573h-.845v-9.313h4.257v4.29c0 4.319 2.747 8.392 7.428 8.392 2.163 0 3.356-.933 4.016-2.344v.893c0 3.456-2.326 4.165-4.559 4.165-1.179 0-2.596-.246-3.685-.864a2.046 2.046 0 01-.212-.124c-.302-.216-.633-.37-.906-.37-.845 0-1.57.77-1.57 1.666 0 .401.18.834.574 1.142 1.751 1.172 3.804 1.79 5.799 1.79 2.959 0 7.761-1.327 7.761-7.343v-11.2h.665c.967 0 1.539-.802 1.539-1.573 0-.771-.574-1.543-1.541-1.543z" fill="#1C1924"/>
</svg>
